<?xml version="1.0" standalone="no"?>
<!DOCTYPE svg PUBLIC "-//W3C//DTD SVG 20010904//EN"
 "http://www.w3.org/TR/2001/REC-SVG-20010904/DTD/svg10.dtd">
<svg version="1.0" xmlns="http://www.w3.org/2000/svg"
 width="84.000000pt" height="84.000000pt" viewBox="0 0 84.000000 84.000000"
 preserveAspectRatio="xMidYMid meet">
<metadata>
Created by potrace 1.10, written by Peter Selinger 2001-2011
</metadata>
<g transform="translate(0.000000,84.000000) scale(0.050000,-0.050000)"
fill="#f1c232" stroke="none">
<path d="M400 1583 l0 -103 -100 0 -100 0 0 -100 0 -100 -100 0 -100 0 0 -590
0 -590 277 0 c257 0 284 -4 371 -50 126 -67 258 -67 384 0 87 46 114 50 371
50 l277 0 0 540 0 540 -102 0 -102 0 7 102 7 102 -240 -8 c-179 -5 -257 -16
-305 -42 -57 -31 -65 -31 -65 -4 0 145 -194 316 -390 343 l-90 12 0 -102z
m255 -76 c125 -94 134 -133 141 -587 l7 -410 -57 53 c-64 60 -169 117 -215
117 -27 0 -31 57 -31 451 l0 452 45 -14 c25 -7 74 -36 110 -62z m-255 -527 l0
-400 76 0 c95 0 229 -83 277 -173 44 -82 31 -96 -51 -55 -37 18 -139 37 -234
43 l-168 11 0 487 0 487 50 0 50 0 0 -400z m980 -137 l0 -438 -165 -9 c-99 -5
-193 -22 -233 -42 -38 -19 -74 -34 -82 -34 -19 0 0 866 20 886 35 39 180 72
315 73 l145 1 0 -437z m-1180 -95 l0 -443 215 -9 c172 -7 233 -18 303 -54 96
-50 130 -48 302 16 79 29 159 41 285 41 l174 1 6 393 c5 388 6 393 49 400 l45
7 5 -448 6 -448 -260 -7 c-226 -6 -270 -13 -336 -52 -98 -58 -210 -58 -308 0
-66 39 -110 46 -331 52 l-255 7 0 493 0 493 50 0 50 0 0 -442z"/>
</g>
</svg>
